<svg width="413" height="60" viewBox="0 0 413 60" fill="none" xmlns="http://www.w3.org/2000/svg">
<circle cx="15" cy="15" r="12" transform="matrix(-1 0 0 1 60 0)" stroke="white" stroke-width="6"/>
<circle cx="15" cy="45" r="12" stroke="white" stroke-width="6"/>
<path fill-rule="evenodd" clip-rule="evenodd" d="M4.29442 0H3.91544e-06V4.19087L10.7833 14.9742L1.00739e-07 25.7574V30.0001H4.24263L15.0259 19.2168L25.8092 30.0001H30L30 25.7056L19.2686 14.9742L30 4.24272L30 0H25.7574L15.0259 10.7315L4.29442 0Z" fill="#FF6347"/>
<path fill-rule="evenodd" clip-rule="evenodd" d="M55.7056 30H60V34.1909L49.2167 44.9742L60 55.7574V60.0001H55.7574L44.9741 49.2168L34.1908 60.0001H30L30 55.7056L40.7314 44.9742L30 34.2427L30 30H34.2426L44.9741 40.7315L55.7056 30Z" fill="#FF6347"/>
<path d="M122.318 15.8409V12.0909H148.5V15.8409H137.523V47H133.295V15.8409H122.318ZM159.251 12.0909V47H155.024V12.0909H159.251ZM195.818 23H191.591C191.341 21.7841 190.903 20.7159 190.278 19.7955C189.665 18.875 188.915 18.1023 188.028 17.4773C187.153 16.8409 186.182 16.3636 185.114 16.0455C184.045 15.7273 182.932 15.5682 181.773 15.5682C179.659 15.5682 177.744 16.1023 176.028 17.1705C174.324 18.2386 172.966 19.8125 171.955 21.892C170.955 23.9716 170.455 26.5227 170.455 29.5455C170.455 32.5682 170.955 35.1193 171.955 37.1989C172.966 39.2784 174.324 40.8523 176.028 41.9205C177.744 42.9886 179.659 43.5227 181.773 43.5227C182.932 43.5227 184.045 43.3636 185.114 43.0455C186.182 42.7273 187.153 42.2557 188.028 41.6307C188.915 40.9943 189.665 40.2159 190.278 39.2955C190.903 38.3636 191.341 37.2955 191.591 36.0909H195.818C195.5 37.875 194.92 39.4716 194.08 40.8807C193.239 42.2898 192.193 43.4886 190.943 44.4773C189.693 45.4545 188.29 46.1989 186.733 46.7102C185.188 47.2216 183.534 47.4773 181.773 47.4773C178.795 47.4773 176.148 46.75 173.83 45.2955C171.511 43.8409 169.688 41.7727 168.358 39.0909C167.028 36.4091 166.364 33.2273 166.364 29.5455C166.364 25.8636 167.028 22.6818 168.358 20C169.688 17.3182 171.511 15.25 173.83 13.7955C176.148 12.3409 178.795 11.6136 181.773 11.6136C183.534 11.6136 185.188 11.8693 186.733 12.3807C188.29 12.892 189.693 13.642 190.943 14.6307C192.193 15.608 193.239 16.8011 194.08 18.2102C194.92 19.608 195.5 21.2045 195.818 23ZM320.178 15.8409V12.0909H346.359V15.8409H335.382V47H331.155V15.8409H320.178ZM380.885 29.5455C380.885 33.2273 380.22 36.4091 378.891 39.0909C377.561 41.7727 375.737 43.8409 373.419 45.2955C371.101 46.75 368.453 47.4773 365.476 47.4773C362.499 47.4773 359.851 46.75 357.533 45.2955C355.214 43.8409 353.391 41.7727 352.061 39.0909C350.732 36.4091 350.067 33.2273 350.067 29.5455C350.067 25.8636 350.732 22.6818 352.061 20C353.391 17.3182 355.214 15.25 357.533 13.7955C359.851 12.3409 362.499 11.6136 365.476 11.6136C368.453 11.6136 371.101 12.3409 373.419 13.7955C375.737 15.25 377.561 17.3182 378.891 20C380.22 22.6818 380.885 25.8636 380.885 29.5455ZM376.794 29.5455C376.794 26.5227 376.288 23.9716 375.277 21.892C374.277 19.8125 372.919 18.2386 371.203 17.1705C369.499 16.1023 367.589 15.5682 365.476 15.5682C363.362 15.5682 361.447 16.1023 359.732 17.1705C358.027 18.2386 356.669 19.8125 355.658 21.892C354.658 23.9716 354.158 26.5227 354.158 29.5455C354.158 32.5682 354.658 35.1193 355.658 37.1989C356.669 39.2784 358.027 40.8523 359.732 41.9205C361.447 42.9886 363.362 43.5227 365.476 43.5227C367.589 43.5227 369.499 42.9886 371.203 41.9205C372.919 40.8523 374.277 39.2784 375.277 37.1989C376.288 35.1193 376.794 32.5682 376.794 29.5455ZM387.993 47V12.0909H409.061V15.8409H392.22V27.6364H407.97V31.3864H392.22V43.25H409.334V47H387.993Z" fill="white"/>
<path d="M214.24 15.8409V12.0909H240.422V15.8409H229.445V47H225.217V15.8409H214.24ZM244.3 47H239.868L252.686 12.0909H257.05L269.868 47H265.436L255.004 17.6136H254.732L244.3 47ZM245.936 33.3636H263.8V37.1136H245.936V33.3636ZM301.756 23H297.528C297.278 21.7841 296.841 20.7159 296.216 19.7955C295.602 18.875 294.852 18.1023 293.966 17.4773C293.091 16.8409 292.119 16.3636 291.051 16.0455C289.983 15.7273 288.869 15.5682 287.71 15.5682C285.597 15.5682 283.682 16.1023 281.966 17.1705C280.261 18.2386 278.903 19.8125 277.892 21.892C276.892 23.9716 276.392 26.5227 276.392 29.5455C276.392 32.5682 276.892 35.1193 277.892 37.1989C278.903 39.2784 280.261 40.8523 281.966 41.9205C283.682 42.9886 285.597 43.5227 287.71 43.5227C288.869 43.5227 289.983 43.3636 291.051 43.0455C292.119 42.7273 293.091 42.2557 293.966 41.6307C294.852 40.9943 295.602 40.2159 296.216 39.2955C296.841 38.3636 297.278 37.2955 297.528 36.0909H301.756C301.438 37.875 300.858 39.4716 300.017 40.8807C299.176 42.2898 298.131 43.4886 296.881 44.4773C295.631 45.4545 294.227 46.1989 292.67 46.7102C291.125 47.2216 289.472 47.4773 287.71 47.4773C284.733 47.4773 282.085 46.75 279.767 45.2955C277.449 43.8409 275.625 41.7727 274.295 39.0909C272.966 36.4091 272.301 33.2273 272.301 29.5455C272.301 25.8636 272.966 22.6818 274.295 20C275.625 17.3182 277.449 15.25 279.767 13.7955C282.085 12.3409 284.733 11.6136 287.71 11.6136C289.472 11.6136 291.125 11.8693 292.67 12.3807C294.227 12.892 295.631 13.642 296.881 14.6307C298.131 15.608 299.176 16.8011 300.017 18.2102C300.858 19.608 301.438 21.2045 301.756 23Z" fill="#FF6347"/>
</svg>
