<svg width="325" height="326" viewBox="0 0 325 326" fill="none" xmlns="http://www.w3.org/2000/svg">
<path d="M135.416 60.2094V14.2083L67.7081 81.876L135.416 149.584V87.2927C155.729 87.2927 177.531 95.4177 192.427 110.314C223.437 142.814 223.437 194.272 192.427 225.418C174.823 243.022 150.448 251.147 127.291 248.439L120.521 275.522C153.156 279.584 187.01 270.105 211.385 244.376C253.229 202.397 253.229 133.334 211.385 91.3552C191.073 71.0427 163.989 60.2094 135.416 60.2094ZM58.3643 244.376C69.1976 255.209 81.2497 263.334 94.7914 268.751L103.052 241.668C93.5726 237.605 85.4476 232.188 78.6768 225.418C52.9476 201.043 47.3956 163.126 62.4268 133.334L42.1143 113.022C17.7393 155.001 23.156 209.168 58.3643 244.376ZM270.833 181.678H297.916V100.428H270.833V181.678ZM270.833 235.845H297.916V208.761H270.833V235.845Z" fill="white"/>
</svg>
