<svg width="16" height="16" viewBox="0 0 16 16" fill="none" xmlns="http://www.w3.org/2000/svg">
<path d="M6.717 3.55C6.80171 3.59081 6.8732 3.65467 6.92326 3.73427C6.97332 3.81387 6.99991 3.90597 7 4V12C6.99987 12.0941 6.97319 12.1862 6.92303 12.2658C6.87288 12.3454 6.80128 12.4093 6.71647 12.45C6.63166 12.4907 6.53708 12.5067 6.4436 12.4961C6.35011 12.4855 6.26152 12.4487 6.188 12.39L3.825 10.5H1.5C1.36739 10.5 1.24021 10.4473 1.14645 10.3536C1.05268 10.2598 1 10.1326 1 10V6C1 5.86739 1.05268 5.74021 1.14645 5.64644C1.24021 5.55268 1.36739 5.5 1.5 5.5H3.825L6.188 3.61C6.26157 3.55118 6.35026 3.51435 6.44385 3.50374C6.53744 3.49312 6.63212 3.50916 6.717 3.55ZM13.854 5.646C13.9006 5.69244 13.9375 5.74762 13.9627 5.80836C13.9879 5.86911 14.0009 5.93423 14.0009 6C14.0009 6.06576 13.9879 6.13089 13.9627 6.19163C13.9375 6.25238 13.9006 6.30755 13.854 6.354L12.207 8L13.854 9.646C13.9479 9.73988 14.0006 9.86722 14.0006 10C14.0006 10.1328 13.9479 10.2601 13.854 10.354C13.7601 10.4479 13.6328 10.5006 13.5 10.5006C13.3672 10.5006 13.2399 10.4479 13.146 10.354L11.5 8.707L9.854 10.354C9.76011 10.4479 9.63278 10.5006 9.5 10.5006C9.36722 10.5006 9.23989 10.4479 9.146 10.354C9.05211 10.2601 8.99937 10.1328 8.99937 10C8.99937 9.86722 9.05211 9.73988 9.146 9.646L10.793 8L9.146 6.354C9.09951 6.30751 9.06264 6.25232 9.03748 6.19158C9.01232 6.13084 8.99937 6.06574 8.99937 6C8.99937 5.93425 9.01232 5.86915 9.03748 5.80841C9.06264 5.74767 9.09951 5.69248 9.146 5.646C9.23989 5.55211 9.36722 5.49937 9.5 5.49937C9.56574 5.49937 9.63084 5.51231 9.69158 5.53747C9.75232 5.56263 9.80751 5.59951 9.854 5.646L11.5 7.293L13.146 5.646C13.1924 5.59943 13.2476 5.56249 13.3084 5.53728C13.3691 5.51208 13.4342 5.4991 13.5 5.4991C13.5658 5.4991 13.6309 5.51208 13.6916 5.53728C13.7524 5.56249 13.8076 5.59943 13.854 5.646Z" fill="white"/>
</svg>
