<svg width="325" height="325" viewBox="0 0 325 325" fill="none" xmlns="http://www.w3.org/2000/svg">
<path d="M135.5 59.1667C163.938 59.1667 191.021 70.0001 211.334 90.3126C253.313 132.292 253.313 201.354 211.334 243.333C186.959 269.063 153.105 278.542 120.605 274.479L127.375 247.396C150.396 250.104 174.771 241.979 192.375 224.375C223.521 193.229 223.521 141.771 192.375 109.271C177.48 94.3751 155.813 86.2501 135.5 86.2501V148.542L67.792 80.8334L135.5 13.1251V59.1667ZM58.3129 243.333C23.1045 208.125 17.6879 153.958 42.0629 111.979L62.3754 132.292C47.4795 162.083 52.8962 200 78.6254 224.375C85.3962 231.146 93.5212 236.563 103 240.625L94.8754 267.708C81.3337 262.292 69.1462 254.167 58.3129 243.333Z" fill="#F8F8F8"/>
</svg>
