<svg width="16" height="16" viewBox="0 0 16 16" fill="none" xmlns="http://www.w3.org/2000/svg">
<path d="M11.536 14.01C12.3265 13.2217 12.9535 12.2849 13.3808 11.2535C13.8081 10.2221 14.0274 9.11641 14.026 8C14.0274 6.88358 13.8081 5.7779 13.3808 4.74651C12.9535 3.71511 12.3265 2.77833 11.536 1.99L10.828 2.697C11.5255 3.39259 12.0787 4.21917 12.4557 5.12924C12.8328 6.03931 13.0262 7.01492 13.025 8C13.025 10.071 12.185 11.946 10.828 13.303L11.536 14.01Z" fill="white"/>
<path d="M10.1209 12.596C10.7254 11.9931 11.2048 11.2767 11.5316 10.488C11.8583 9.69926 12.026 8.85373 12.0249 8C12.026 7.14626 11.8583 6.30074 11.5316 5.51201C11.2048 4.72327 10.7254 4.00688 10.1209 3.404L9.41394 4.111C9.92542 4.62115 10.3311 5.22734 10.6075 5.89474C10.884 6.56214 11.0258 7.2776 11.0249 8C11.0261 8.7225 10.8845 9.4381 10.6082 10.1057C10.3319 10.7733 9.92636 11.3797 9.41494 11.89L10.1209 12.596Z" fill="white"/>
<path d="M8.707 11.182C9.12548 10.7646 9.45735 10.2686 9.68354 9.72252C9.90973 9.17645 10.0258 8.59106 10.025 8C10.0258 7.40893 9.90973 6.82354 9.68354 6.27747C9.45735 5.7314 9.12548 5.2354 8.707 4.818L8 5.525C8.32548 5.84967 8.5836 6.23546 8.7595 6.6602C8.93541 7.08495 9.02563 7.54027 9.025 8C9.02558 8.45972 8.93533 8.91502 8.75942 9.33976C8.58352 9.7645 8.32544 10.1503 8 10.475L8.707 11.182ZM6.717 3.55C6.80171 3.59081 6.8732 3.65467 6.92326 3.73427C6.97332 3.81387 6.99991 3.90597 7 4V12C6.99987 12.0941 6.97319 12.1862 6.92303 12.2658C6.87288 12.3454 6.80128 12.4093 6.71647 12.45C6.63166 12.4907 6.53708 12.5067 6.4436 12.4961C6.35011 12.4855 6.26152 12.4487 6.188 12.39L3.825 10.5H1.5C1.36739 10.5 1.24021 10.4473 1.14645 10.3536C1.05268 10.2598 1 10.1326 1 10V6C1 5.86739 1.05268 5.74021 1.14645 5.64644C1.24021 5.55268 1.36739 5.5 1.5 5.5H3.825L6.188 3.61C6.26157 3.55118 6.35026 3.51435 6.44385 3.50374C6.53744 3.49312 6.63212 3.50916 6.717 3.55Z" fill="white"/>
</svg>
